<svg width="463" height="481" viewBox="0 0 463 481" fill="none" xmlns="http://www.w3.org/2000/svg">
<g clip-path="url(#clip0_926_4)">
<path d="M383.94 170.8C383.94 164.96 384.14 159.12 383.89 153.29C383.61 146.72 386.88 142.52 392.49 140.15C395.16 139.03 395.87 137.48 395.88 134.97C395.96 120.97 396.25 106.97 395.7 92.9698C395.51 88.1898 395.28 88.3898 390.59 89.8398C379.19 93.3598 368.19 98.0298 356.67 101.26C351.92 102.59 347.19 104.61 342.43 106.25C337.63 107.91 337.6 107.74 337.53 102.79C337.36 91.6898 334.37 81.6898 325.51 74.3398C318.13 68.2198 309.91 63.4898 300.67 60.5998C297.25 59.5298 294.07 57.8398 290.61 56.6998C268.92 49.5198 246.86 46.1298 223.93 47.2998C206.83 48.1698 190.37 51.3798 174.12 56.5898C165.29 59.4198 156.82 62.8798 148.87 67.5798C139.58 73.0698 132.59 80.8298 128.9 90.9298C127.2 95.5898 127.24 100.91 126.75 105.96C126.54 108.14 126.22 108.56 123.92 107.84C107.95 102.85 92.2196 97.1498 76.3496 91.8898C63.5096 87.6398 50.8696 82.7998 37.8996 78.9298C36.4996 78.5098 34.8196 77.8098 34.7196 76.2698C34.5896 74.3098 36.7996 73.9198 38.0796 73.3798C45.7796 70.1198 53.4996 66.8798 61.3596 64.0598C70.5896 60.7498 79.4296 56.4498 88.6496 53.1898C101.53 48.6398 113.82 42.6598 126.8 38.3298C133.4 36.1298 139.75 32.7898 146.3 30.1998C155.92 26.3898 165.71 23.0098 175.4 19.3898C181.46 17.1298 187.6 15.0198 193.48 12.3598C201.13 8.88977 209.2 6.69977 217.06 3.88977C220.11 2.79977 223.31 1.76977 226.42 0.799767C231.23 -0.700233 235.55 0.0497675 239.89 1.35977C249.38 4.23977 258.46 8.25977 267.76 11.6898C275.02 14.3698 282.25 17.1698 289.51 19.8298C296.09 22.2398 302.67 24.8398 309.19 27.5198C316.07 30.3398 323.22 32.4898 330.07 35.3798C335.77 37.7998 341.69 39.6898 347.32 42.1798C356.97 46.4498 366.99 49.6698 376.72 53.6898C386.42 57.6898 396.15 61.6098 405.9 65.4898C412.32 68.0398 418.77 70.4998 425.25 72.8898C426.36 73.2998 427.55 73.2498 427.69 74.8198C427.83 76.2998 426.82 76.9298 425.79 77.4498C419.46 80.6198 412.81 83.0398 406 84.8598C403.69 85.4698 402.86 86.2198 402.88 88.4998C403.03 104.11 403.17 119.71 403.13 135.32C403.13 137.83 403.9 139.26 406.05 140.4C410.97 143.03 412.84 147.26 412.78 152.83C412.63 165.81 412.78 178.8 412.86 191.78C412.87 193.9 412.93 195.95 410.57 196.92C403.56 199.82 396.7 203.43 389.01 198.28C385.99 196.26 383.88 194.3 383.94 190.45C384.04 183.89 383.97 177.32 383.96 170.75L383.94 170.8ZM390.9 158.57C389.56 167.03 390.01 175.47 390.59 183.92C390.66 184.86 391.13 185.59 392.28 185.36C393.54 185.12 393.85 184.07 393.9 183.08C394.09 179.48 393.42 175.91 393.63 172.27C393.9 167.6 394.43 162.72 390.89 158.58L390.9 158.57ZM390.4 153.39C392.25 151.55 393.95 149.84 395.68 148.16C396.35 147.51 396.97 146.8 396.14 146C395.37 145.25 394.48 145.77 393.82 146.33C391.71 148.12 389.84 150.07 390.4 153.4V153.39ZM251.24 319.78C249.82 317.18 250.16 314.55 250.08 312.03C250.01 309.7 250.15 307.37 250.26 305.04C250.51 299.98 248.7 294.26 256.56 292.51C260.68 291.59 262.17 286.94 261.86 283.13C261.5 278.71 258.41 275.37 254.24 273.56C250.57 271.97 245.75 273.75 243.2 277.3C239.6 282.31 239.45 287.35 243.53 291.51C245.54 293.56 245.69 295.41 245.64 297.98C245.17 321.86 243.88 345.75 244.72 369.63C244.92 375.45 240.87 378.07 237.89 381.53C236.63 383 234.53 382.43 234.27 379.86C234.14 378.56 234.22 377.24 234.22 375.92C234.22 298.61 234.1 221.29 234.37 143.98C234.42 130.58 245.64 115.58 261.52 115.71C270.34 115.78 278.99 115.91 285.36 123.37C285.64 123.7 286.01 123.99 286.19 124.37C288.93 129.98 293.07 132.56 299.57 133.73C310.53 135.71 315.35 144.41 317.24 154.71C317.6 156.67 318.09 157.37 320.04 157.66C326.15 158.58 331.47 160.91 335.63 165.88C339.87 170.94 341.94 182.76 339.03 188.71C338.58 189.62 338.17 190.56 337.65 191.43C335.4 195.15 337.69 196.76 340.7 197.97C348.16 200.96 352.64 208.06 353.39 215.92C354.16 224.11 351.05 230.23 345.08 235.13C342.79 237.01 343.1 239.21 343.89 240.97C346.82 247.48 346.94 253.79 343.57 260.08C339.5 267.68 333.76 273.26 324.75 274.05C321.7 274.32 321.14 275 321.48 278.09C322.82 290.41 318.6 300.05 307.27 306.17C304.43 307.7 301.41 307.71 298.49 308.26C295.65 308.79 294.41 309.52 293.18 312.57C286.89 328.15 277.83 333.29 260.08 331.67C257.53 331.44 254.88 331.28 252.51 329.84C250.63 328.69 249.86 327.85 251.75 325.94C255.38 322.27 258.86 318.45 262.32 314.63C263.55 313.27 264.47 313.69 265.53 314.74C269.94 319.12 275.17 319.02 279.85 316.02C283.51 313.67 284.46 309.27 284.14 304.85C283.77 299.71 276.98 294.15 271.67 294.36C267.05 294.55 262.72 299.05 262.21 304.48C262.13 305.34 262.23 306.52 261.72 306.98C257.66 310.65 255.63 315.99 251.24 319.78ZM249.99 254.7C249.99 251.86 249.85 249.88 250.02 247.92C250.39 243.57 248.8 238.92 252.51 235.09C260.37 226.98 267.63 218.23 275.98 210.67C282.07 205.15 287.72 199.24 293.62 193.56C295.05 192.18 295.66 190.3 295.59 188.07C295.41 182.24 295.61 176.4 295.57 170.57C295.55 168.35 295.7 167.03 298.63 166.48C304.73 165.33 308.46 156.55 305.65 151.07C302.89 145.68 295.02 143.11 290.28 146.04C284.28 149.75 281.92 158.27 286.47 162.9C289.99 166.49 290.43 170.2 290.27 174.58C290.14 178.08 289.99 181.61 290.32 185.08C290.69 188.88 289.59 191.37 286.39 193.77C281.87 197.16 278 201.41 273.63 205.51C273.63 188.63 273.79 172.32 273.49 156.02C273.43 152.9 273.39 151.1 276.55 149.39C281.24 146.85 283.12 140.1 281.2 135.71C279.17 131.05 272.87 127.45 267.99 128.16C262.76 128.92 259.77 132.16 259.03 138.62C258.51 143.12 260.67 147.86 265.18 150.11C266.36 150.7 268.45 150.28 268.4 152.82C268.04 170.58 269.15 188.36 267.15 206.11C266.65 210.55 266.39 214.49 261.77 216.63C260.93 217.02 260.45 218.15 259.76 218.9C257.09 221.82 254.41 224.72 250.89 228.55C250.89 225.26 250.89 223.27 250.89 221.28C250.92 212.38 251.26 203.47 250.89 194.59C250.66 189.03 250.84 184.67 257.14 182.21C261.14 180.65 261.88 173.02 259.33 168.56C256.88 164.26 250.65 162.16 246.56 164.25C238.92 168.15 237.6 177.07 243.98 182.9C245.4 184.2 245.61 185.45 245.6 187.08C245.57 204.73 245.84 222.39 245.41 240.03C245.25 246.55 245.75 253.17 244.35 259.63C243.92 261.61 242.85 264.1 244.56 265.31C246.78 266.87 248.3 263.96 250.17 263.09C250.41 262.98 250.55 262.66 250.75 262.44C261.09 251.26 272.37 240.95 281.98 229.1C285.37 224.92 289.33 223.41 294.65 223.47C302.81 223.57 310.96 224.85 319.12 223.94C321.6 223.67 323.4 224.16 325.46 225.74C331.04 230.01 334.9 229.98 339.48 226.35C342.91 223.63 344.89 218.58 343.25 215.14C341.48 211.43 339.83 207.21 334.66 206.9C328.49 206.53 324.44 208.12 323.35 213.2C322.08 219.11 318.69 219.79 313.9 219.43C312.02 219.29 310.08 219.63 308.22 219.4C303.67 218.82 298.95 219.91 294.3 218.21C298.47 213.78 302.13 209.26 306.43 205.46C312.66 199.96 315.98 191.44 325.1 188.8C330.24 187.31 331.76 181.11 329.4 176.07C326.48 169.81 320.72 167.12 315.41 168.95C306.56 172 305.21 183.38 312.25 188.8C313.86 190.04 313.16 190.53 312.2 191.72C306.8 198.41 300.36 204.08 294.29 210.09C283.88 220.41 273.4 230.65 263.42 241.39C259.38 245.74 255.68 250.46 250.01 254.73L249.99 254.7ZM334.94 251.38C334.98 245.9 332.52 242.37 327.77 241.11C322.28 239.64 317.46 241.57 314.84 246.29C314.23 247.4 313.99 248.97 312.3 248.88C305.3 248.5 297.97 250.29 291.58 245.73C290.26 244.79 288.72 244.25 287.03 244.73C285.97 245.03 285.13 245.76 285 246.8C284.85 248.05 285.97 248.37 286.96 248.74C288.13 249.18 295.41 254.15 298.87 254.14C302.66 254.14 306.45 254.27 310.24 254.16C312.46 254.1 313.85 254.62 315.03 256.81C317.28 261 323.17 263.66 326.72 262.6C332.38 260.92 334.9 257.47 334.94 251.38ZM311.35 284.29C311.39 279.15 307.04 273.56 302.24 272.58C297.07 271.51 292.49 274.25 290.22 280.07C289.46 282.02 288.31 282.28 286.54 282.19C282.47 281.98 278.39 281.98 274.32 281.73C273.02 281.65 271.97 281.51 271.73 283.12C271.51 284.55 272.25 285.34 273.59 285.57C277.6 286.26 281.62 287.88 285.65 287.1C288.17 286.61 289.18 287.48 290.09 289.24C292.92 294.74 296.77 296.07 302.51 295.15C308.76 294.15 310.55 290.81 311.34 284.3L311.35 284.29ZM282.84 265.34C282.27 262.15 281.78 258.7 277.9 256.72C274.31 254.88 271.33 254.64 267.77 257.03C261.78 261.05 261.06 264.81 265.53 272.7C269.16 279.09 273.83 279.79 279.31 274.83C282.03 272.36 282.61 269.16 282.83 265.35L282.84 265.34ZM208.8 316.24C204.84 312.81 201.6 309.99 198.33 307.18C197.04 306.07 197.55 304.45 197.13 303.1C195.6 298.16 191.61 294.64 186.96 294.44C182.46 294.25 177.25 298.09 175.42 302.93C173.89 306.99 175.46 312.55 178.97 315.48C183.26 319.06 190.58 318.56 194.06 314.05C196.22 311.25 197.98 313.33 199.13 314.35C202.29 317.17 205.1 320.4 207.92 323.58C209.91 325.82 209.19 328.76 206.45 329.7C193.27 334.21 181.05 333.22 170.85 322.77C167.73 319.57 164.95 315.88 165.1 310.98C165.17 308.72 163.97 308.39 162.09 308.35C156.34 308.24 151.04 306.8 146.62 302.86C139.18 296.23 134.23 285.53 139.23 274.98C138.56 273.9 137.41 274.2 136.51 274.26C127.13 274.92 120.71 269.85 116.28 262.6C111.84 255.33 112.28 247.3 116.15 239.66C117 237.98 117.24 237.19 115.26 236.01C106.5 230.79 104.23 219.23 108 210.88C111.11 204 114.82 197.58 123.41 196.15C125.78 195.75 123.89 193.97 123.43 193.16C119.8 186.64 118.8 180 121.18 172.74C123.88 164.5 132.48 157.86 140.76 157.29C142.91 157.14 142.91 156.4 143.23 154.8C145.45 143.73 150.28 136.19 161.74 133.37C162.31 133.23 162.93 132.82 163.42 132.95C168.91 130.66 180.75 120.86 182.83 120.68C185.24 120.47 186.13 122.82 187.31 124.35C188.42 125.8 187.32 127 186.26 128.13C184.33 130.17 182 131.74 180.66 134.43C177.26 141.26 178.32 146.34 184.67 150.52C185.83 151.28 186.74 151.61 186.73 153.26C186.67 170.88 186.69 188.49 186.69 206.39C180.83 201.86 177.11 195.38 171.12 191.28C170.25 190.68 170.35 189.79 170.31 188.93C170.02 182.68 169.76 176.43 169.43 170.19C169.35 168.61 169.74 167.65 171.15 166.61C178.9 160.91 177.6 149.58 168.87 145.71C165.37 144.16 159.96 145.51 156.99 148.68C154.65 151.17 153.26 157.51 155.03 160.08C156.96 162.88 158.13 166.77 162.7 166.84C164.7 166.87 164.52 168.57 164.55 170.11C164.65 176.67 164.86 183.23 165.04 189.79C165.08 191.07 164.85 192.35 166.08 193.38C172.05 198.42 177.14 204.34 182.55 209.94C189.41 217.04 196.48 223.94 203.09 231.3C205.34 233.8 207.29 236.65 209.9 238.85C210.76 239.58 211.52 240.98 212.76 240.41C213.76 239.95 214.08 238.63 214.12 237.39C214.22 234.04 214.7 230.68 214.51 227.35C213.82 215.1 214.48 202.84 213.93 190.62C213.76 186.72 214.32 184.38 217.34 181.59C220.12 179.03 220.71 174.65 219.05 170.65C217.32 166.5 214.12 164.27 209.7 163.88C205.53 163.51 202.83 165.83 200.96 169.24C198.31 174.05 199.9 180.34 204.56 183.37C206.65 184.73 208.28 186.12 208.45 188.93C209.26 202.1 208.57 215.26 208.86 229.32C202.73 223.75 198.85 217.46 193.01 213.11C191.94 212.31 192.24 210.99 192.23 209.84C192 191.05 191.79 172.25 191.55 153.46C191.53 152.2 191.65 151.36 193.18 150.9C201.03 148.56 202.46 139.82 199.38 133.93C197.51 130.35 199.12 128.77 202.01 127.63C204.86 126.5 215.49 125.63 217.72 126.77C221.12 128.49 223.25 131.43 224.49 134.87C225.22 136.87 225.38 139.14 225.43 141.3C226.25 175.12 226.12 208.93 225.58 242.75C224.98 279.93 224.92 317.12 224.83 354.31C224.81 360.84 225.84 367.37 226.31 373.91C226.45 375.93 226.67 378.27 224.3 379.17C222.07 380.02 221.08 377.79 219.63 376.69C215.6 373.64 214.92 369.92 215.38 364.87C216.03 357.81 214.72 350.59 215.03 343.47C215.75 326.87 214.76 310.36 213.69 293.83C213.55 291.59 215.94 290.21 217.14 288.45C219.78 284.57 219.25 278.33 212.14 274C207.95 271.44 202.29 273.4 199.89 278.2C196.1 285.78 198.01 290.82 206.12 293.9C208.22 294.7 208.92 295.6 208.84 297.86C208.64 303.67 208.77 309.5 208.77 316.22L208.8 316.24ZM165.04 218.13C156.86 219.84 148.68 218.85 140.67 219.88C138.63 220.14 139.05 218.43 138.8 217.19C137.44 210.47 134.28 206.3 128.03 206.74C122.52 207.12 119.08 209.98 117.32 216.71C116.4 220.23 119.12 225.7 122.9 227.94C127.08 230.41 132.64 229.93 135.61 225.83C137.6 223.09 139.07 222.86 141.61 224.31C142.06 224.57 142.76 224.42 143.34 224.42C150.18 224.38 157.07 225.03 163.82 223.51C168.66 222.42 172.05 224.35 175.32 227.66C176.81 229.17 178.17 230.79 179.63 232.32C187.37 240.41 194.83 248.78 202.82 256.61C205.5 259.23 207.84 262.36 211.3 264.25C212.73 265.03 214.1 266.54 215.4 264.93C216.56 263.49 215.98 261.68 214.55 260.26C201.94 247.72 189.39 235.11 176.74 222.61C166.84 212.83 158.09 201.95 147.76 192.6C146.28 191.26 146.16 190.05 147.93 188.69C151.76 185.74 153.32 180.14 151.6 176.13C149.33 170.83 144.7 167.83 139.71 168.41C135.98 168.85 131.45 172.65 130.94 175.77C129.74 183.11 131.95 188.44 138.48 190.37C142.08 191.43 143.37 193.63 145.21 196.12C151.01 203.98 158.96 209.92 165.04 218.15V218.13ZM148.22 254.23C152.54 254.93 157.25 254.62 160.38 258.8C161.43 260.2 163.1 261 164.82 261.46C168.58 262.45 171.8 261.51 174.01 258.26C176.39 254.76 176.18 248 173.62 245.46C170.46 242.31 167.23 244.33 164.49 246.03C158.75 249.6 152.48 248.67 146.31 248.82C144.73 248.86 144.06 247.65 143.47 246.47C141.08 241.72 138.36 240.24 133.14 240.92C128.18 241.57 125.63 243.96 124.61 248.91C123.43 254.62 126.29 259.92 131.82 261.84C135.63 263.16 141.98 262.14 144.28 256.62C145.08 254.69 146.11 253.79 148.22 254.24V254.23ZM183.34 285.82C185.04 285.34 187.18 286.43 188.18 284.49C188.72 283.45 187.81 282.23 187.09 281.34C185.56 279.43 183.65 280.5 181.87 280.88C181.47 280.97 181.13 281.33 180.75 281.54C175.8 284.27 171.04 282.81 168.72 277.7C168.35 276.89 167.91 276.35 167.35 275.7C162.3 269.88 150.82 271.28 148.52 281.94C147.2 288.07 150.49 293.19 157.32 295.64C161.9 297.28 166.36 295.08 168.89 289.44C170.46 285.95 172.91 284.7 176.49 285.07C178.8 285.31 181.11 285.57 183.34 285.82ZM176.46 265.92C176.51 269.81 180.51 275.06 183.48 275.13C187.62 275.23 193.92 269.01 193.75 265C193.56 260.65 189.26 255.76 185.78 255.93C181.21 256.15 176.41 261.3 176.47 265.92H176.46ZM327.89 117.21C327.89 123.23 327.91 127.9 327.87 132.56C327.87 133.49 328.33 134.76 326.92 135.11C325.88 135.37 325.55 134.45 325 133.74C315.63 121.53 303.18 113.39 289.06 108.03C279.68 104.47 270.06 101.49 259.77 100.74C250.69 100.08 241.75 97.7798 232.57 97.4598C222.6 97.1198 212.92 99.4198 203.09 100.33C193.31 101.24 184.02 103.8 175.07 107.3C161.43 112.63 148.75 119.7 140.34 132.45C139.58 133.61 138.94 135.47 137.19 134.93C135.29 134.34 136.35 132.46 136.33 131.15C136.24 123.57 135.98 115.99 136.26 108.42C136.46 103.09 136.43 97.6298 137.91 92.4598C140.25 84.3198 147.06 79.9698 153.52 75.6498C161.97 69.9998 171.59 66.5998 181.3 64.0298C193.51 60.7898 205.73 57.7498 218.56 56.9598C235.09 55.9498 251.16 57.1798 267.37 60.4198C282.9 63.5298 297.82 68.0798 311.55 75.8098C318.69 79.8298 326.03 84.6998 326.86 94.1198C327.57 102.23 328.44 110.38 327.87 117.2L327.89 117.21ZM189.92 72.4598C191.29 72.2298 191.24 73.6498 191.82 74.3498C193.05 75.8298 194.49 75.9698 196.12 75.1598C198.03 74.2098 197.22 72.7998 196.75 71.4198C196.08 69.4598 194.67 69.0898 192.93 69.7198C180.25 74.3298 166.77 76.6998 155.36 84.8498C150.96 87.9998 149.45 91.9198 148.01 96.3998C147.11 99.1998 149.78 99.5398 151.15 100.24C152.9 101.12 153.13 99.1898 153.43 97.9698C154.26 94.6598 156.45 92.7398 159.23 90.7998C167.47 85.0498 177.1 82.7298 186.19 79.0798C187.93 78.3798 190.03 78.2398 188.1 75.4398C187.23 74.1798 188.35 72.9998 189.9 72.4598H189.92ZM458.78 450.31C452.89 447.49 446.52 446.23 440.45 444.02C432.06 440.96 423.65 437.85 415.02 435.63C404.25 432.86 393.44 430.17 382.52 427.95C370.86 425.57 359.13 424.08 347.3 423.14C335.98 422.25 324.68 422.17 313.31 422.93C305.61 423.45 298.2 425.19 290.67 426.36C282.11 427.69 274.31 431.68 266.68 435.64C263.75 437.16 260.45 439 259.83 443C258.15 453.77 251.2 460.26 241.98 464.91C229.89 471.01 208.94 462.72 205.93 448.51C205.04 444.29 205.01 438.86 199.77 436.4C195.12 434.22 190.77 431.17 185.93 429.68C181.67 428.37 177.59 426.11 173.09 425.84C164.54 425.34 156.22 423.34 147.65 422.7C134.47 421.71 121.34 422.35 108.38 423.51C90.5796 425.1 73.0096 429.16 55.6996 433.73C40.1296 437.83 24.8396 443 9.52958 448.03C6.52958 449.02 2.71958 449.76 1.16958 452.95C-0.220421 455.8 -0.790421 459.27 1.84958 461.93C4.56958 464.67 7.76958 463.45 10.7896 462.31C17.3596 459.82 23.7796 456.81 30.5096 454.87C39.9196 452.17 49.3496 449.49 58.8796 447.14C70.3996 444.3 81.9296 441.58 93.6296 439.76C103.95 438.15 114.41 437.52 124.76 436.03C135.9 434.43 146.86 436.27 157.82 437.41C165.69 438.22 173.49 439.93 181.23 441.64C185.79 442.65 191.65 442.88 190.63 450.26C190.6 450.51 190.83 450.79 190.95 451.06C197.6 465.51 207.06 476.59 223.8 479.47C245.24 483.16 263.16 473.23 271.92 453.72C274.34 448.34 275.72 442.58 283.21 441.52C292.49 440.21 301.75 438.51 310.95 436.82C329.47 433.42 347.45 437.32 365.53 439.39C375.07 440.48 384.62 442.15 394.06 444.62C403.5 447.09 413.11 449.17 422.44 452.06C432.87 455.29 443.34 458.49 453.44 462.78C459.3 465.27 462.75 462.92 462.77 456.37C463.42 453.53 461.86 451.78 458.78 450.31ZM95.6396 346.59C85.8596 347.78 76.1796 349.34 66.4896 351.16C57.9496 352.77 56.2096 353.32 53.4896 361.38C52.8996 363.11 52.4796 365.16 53.3696 366.43C54.3996 367.91 56.7296 367.34 58.2696 366.83C69.6296 363.12 81.2396 361.11 93.1196 359.65C108.93 357.7 124.53 358.63 140.06 360.87C148.23 362.05 156.37 364.03 164.33 366.85C175.13 370.68 185.59 374.82 194.51 382.18C195.35 382.88 196.81 383.48 196.11 384.89C195.51 386.09 194.09 385.84 192.96 385.71C190.21 385.4 188.47 383.15 186.15 382.03C176.53 377.41 166.62 373.43 156.18 371.17C147.43 369.28 138.7 367.3 129.62 366.97C118.84 366.58 108.13 366.37 97.3296 366.95C86.9896 367.51 76.9196 369.24 66.9496 371.62C59.2496 373.45 51.4196 375.03 44.1396 378.3C42.8996 378.86 40.7696 378.74 40.7696 381.03C40.7696 384.32 39.1096 387.14 38.1496 390.16C37.9096 390.92 37.1096 391.75 37.8696 392.57C38.7696 393.53 39.6696 392.81 40.6396 392.48C47.6096 390.14 54.4996 387.43 61.6196 385.7C74.5496 382.55 87.6596 380.49 100.93 378.89C121.5 376.4 141.55 378.94 161.56 382.62C170.74 384.31 179.55 387.97 188.73 389.65C197.09 391.18 204.4 394.06 210.8 399.66C216.97 405.05 222.61 410.89 227.4 417.52C229.67 420.66 231.9 420.53 234.39 418.11C243.3 409.45 251.88 400.44 261.87 392.98C264.41 391.09 266.15 388.68 267.4 385.9C268.8 382.78 271.18 380.68 273.69 378.47C277.48 375.13 282.09 373.36 286.41 371.19C292.33 368.22 298.48 365.25 304.88 363.83C312.85 362.06 320.94 360.57 329.13 359.52C346.27 357.31 363.17 358.9 380.04 360.81C389.86 361.92 399.45 365.12 409.1 367.53C410.66 367.92 411.9 368.47 412.67 366.59C413.95 363.44 411.87 355.63 408.99 354.43C405.69 353.05 402.14 351.82 398.61 351.52C389.93 350.76 381.54 348.48 372.89 347.44C355.68 345.35 338.6 345.7 321.61 348.4C311.11 350.07 300.84 352.9 291.01 357.34C282.92 360.99 275.06 365.03 268.41 370.81C256.14 381.47 244.89 393.2 234.4 405.63C232.3 408.12 230.32 407.84 228.62 405.66C223.55 399.18 218.46 392.74 212.46 387.06C206.53 381.45 201.14 375.15 194.68 370.24C181.96 360.55 167.48 354.33 151.83 350.73C139.19 347.82 126.55 345.37 111.84 346.08C107.54 346.45 101.57 345.9 95.5896 346.63L95.6396 346.59ZM89.4096 388.02C78.3896 389.61 67.4496 391.03 56.7596 394.6C50.0896 396.83 43.3596 399.11 36.5896 400.95C30.9696 402.48 27.2896 404.8 25.6496 410.44C25.0196 412.62 24.1896 415.15 25.5996 416.62C26.8196 417.89 29.0996 416.19 30.8396 415.58C38.6096 412.85 46.2496 409.71 54.1396 407.44C63.9896 404.61 74.1496 402.92 84.1396 400.69C94.7196 398.33 105.33 397.07 116.03 396.91C132.86 396.66 149.64 396.93 166.27 400.97C178.13 403.85 189.63 407.21 200.05 413.56C205.34 416.78 210.33 420.52 214.64 425.04C216.45 426.94 217.64 427.08 219.98 425.22C223.42 422.47 222.94 420.89 219.69 418.78C218.51 418.01 217.66 416.72 216.67 415.65C209.25 407.67 200.61 401.44 190.33 397.71C179.22 393.67 167.82 390.8 156.13 388.73C144.33 386.64 132.59 385 120.21 385.57C110.06 384.81 99.7496 386.53 89.3696 388.03L89.4096 388.02ZM294.85 407.68C285.84 409.76 276.75 412.53 268.63 417.37C263.01 420.72 258.23 425.2 253.5 429.69C251.99 431.12 252.27 433.05 253.21 434.48C254.31 436.15 255.53 434.87 256.87 434.15C264.69 429.95 272.06 425.12 280.72 422.22C293.56 417.92 306.7 416.36 319.95 415.27C331.57 414.32 343.15 415.69 354.78 416.74C372.29 418.32 389.31 421.99 406.2 426.46C414.96 428.78 423.45 432.14 432.21 434.45C437.12 435.75 441.62 438.11 446.56 439.21C447.58 439.44 448.37 440.17 448.76 438.47C449.41 435.68 445.7 426.65 443.15 426.07C440.42 425.44 438.04 424.1 435.45 423.26C420.48 418.44 405.5 413.74 390.11 410.29C372.77 406.41 355.53 402.39 337.5 404.16C323.11 402.63 308.81 404.45 294.85 407.67V407.68ZM245.94 426.02C248.49 426.55 249.66 424.03 251.15 422.62C258.42 415.75 266.84 410.74 275.92 406.72C282.56 403.78 289.65 402.48 296.63 400.63C310.76 396.89 325.07 396.3 339.43 396.76C352.88 397.19 366.3 397.51 379.61 400.95C389.3 403.46 399.45 404.67 408.88 408.04C417.57 411.15 426.78 412.63 435.15 416.69C436.15 417.18 437.67 417.65 438.21 415.6C439.29 411.53 436.26 404.28 432.32 402.99C423.57 400.12 414.74 397.48 405.96 394.75C390.32 389.87 374.34 387.38 358.19 386.02C344.86 384.89 331.34 384.21 318.09 386.57C309.46 388.11 300.75 389.27 292.16 391.35C284.1 393.3 276.39 395.92 269.01 399.38C258.05 404.52 249.18 412.51 240.97 422.31C243.76 422.38 243.8 425.57 245.95 426.02H245.94ZM49.5496 428.22C55.4696 426.33 61.4396 424.42 67.5196 423.26C81.0296 420.69 94.4296 417.5 108.2 416.27C118.5 415.36 128.72 414.21 139.11 414.95C149.69 415.7 160.08 417.12 170.48 419.37C180.14 421.45 189.46 423.9 198.06 428.8C201.02 430.49 203.98 432.17 206.9 433.91C209.13 435.24 210.11 432.59 211.91 432.35C212.77 432.24 212.15 430.89 211.52 430.24C207.68 426.28 203.47 422.58 198.77 419.91C190.42 415.17 181.59 411.34 172.14 409.04C164.13 407.09 156.12 404.48 147.98 404.12C124.58 403.09 101.18 403.47 78.1996 409.14C70.7796 410.97 63.0896 411.92 55.8696 414.32C50.3996 416.14 44.7996 417.57 39.3096 419.28C34.9196 420.65 30.6096 422.32 26.3196 423.88C17.3996 427.11 14.3296 431.81 14.6596 439.76C26.3196 435.89 37.8796 431.94 49.5196 428.22H49.5496ZM281.09 388.47C290.78 383.82 301.19 382.05 311.53 380.3C332.65 376.73 353.89 377.44 375.01 380.42C389.18 382.42 402.97 386.13 416.39 391.26C426.49 395.12 426.57 394.9 425.08 384.1C424.96 383.25 424.9 382.36 424.58 381.58C424.15 380.53 423.61 379.72 422.22 379.34C412.2 376.61 402.3 373.36 392.19 370.98C384.46 369.16 376.51 367.47 368.63 367.32C352.62 367 336.55 366.03 320.58 368.04C311.84 369.14 303.14 370.86 295 374.33C286.06 378.14 276.73 381.47 270.29 389.76C274.1 390.39 277.96 389.97 281.08 388.47H281.09ZM252.62 440.46C253.15 454.46 233.99 463.38 224.31 458.48C217.36 454.96 213.21 450.07 211.69 442.65C211.34 440.94 211.49 439.65 213.55 438.91C217.73 437.41 221.19 434.67 224.61 431.91C229.74 427.77 235.11 427.81 240.27 431.71C243.54 434.18 246.35 437.61 251.63 436.02C253.24 435.54 252.05 439.17 252.63 440.46H252.62ZM232.79 447.67C235.01 447.44 236.98 446.15 236.87 443.13C236.77 440.39 235.21 438.17 232.39 438.1C229.22 438.02 228.02 440.19 228.05 443.35C228.07 446.3 229.29 447.68 232.79 447.68V447.67ZM128.66 212.22C125.4 212.4 123.19 214.17 122.74 217.48C122.4 220.01 125.82 223.62 128.38 223.46C131.55 223.27 133.28 221.37 133.63 218.88C133.62 215.32 131.06 212.08 128.65 212.21L128.66 212.22ZM209.97 169.83C207.41 169.83 205.34 171.9 205.34 174.46C205.34 177.02 207.41 179.09 209.97 179.09C212.53 179.09 214.6 177.02 214.6 174.46C214.6 171.9 212.53 169.83 209.97 169.83ZM164.31 151.65C161.75 151.65 159.68 153.72 159.68 156.28C159.68 158.84 161.75 160.91 164.31 160.91C166.87 160.91 168.94 158.84 168.94 156.28C168.94 153.72 166.87 151.65 164.31 151.65ZM190.27 135.06C187.71 135.06 185.64 137.13 185.64 139.69C185.64 142.25 187.71 144.32 190.27 144.32C192.83 144.32 194.9 142.25 194.9 139.69C194.9 137.13 192.83 135.06 190.27 135.06ZM141.26 175.12C138.7 175.12 136.63 177.19 136.63 179.75C136.63 182.31 138.7 184.38 141.26 184.38C143.82 184.38 145.89 182.31 145.89 179.75C145.89 177.19 143.82 175.12 141.26 175.12ZM134.79 247.1C132.23 247.1 130.16 249.17 130.16 251.73C130.16 254.29 132.23 256.36 134.79 256.36C137.35 256.36 139.42 254.29 139.42 251.73C139.42 249.17 137.35 247.1 134.79 247.1ZM168.3 248.2C165.74 248.2 163.67 250.27 163.67 252.83C163.67 255.39 165.74 257.46 168.3 257.46C170.86 257.46 172.93 255.39 172.93 252.83C172.93 250.27 170.86 248.2 168.3 248.2ZM185.11 260.9C182.55 260.9 180.48 262.97 180.48 265.53C180.48 268.09 182.55 270.16 185.11 270.16C187.67 270.16 189.74 268.09 189.74 265.53C189.74 262.97 187.67 260.9 185.11 260.9ZM159.73 279.75C157.17 279.75 155.1 281.82 155.1 284.38C155.1 286.94 157.17 289.01 159.73 289.01C162.29 289.01 164.36 286.94 164.36 284.38C164.36 281.82 162.29 279.75 159.73 279.75ZM186.66 301.63C184.1 301.63 182.03 303.7 182.03 306.26C182.03 308.82 184.1 310.89 186.66 310.89C189.22 310.89 191.29 308.82 191.29 306.26C191.29 303.7 189.22 301.63 186.66 301.63ZM208.59 279.24C206.03 279.24 203.96 281.31 203.96 283.87C203.96 286.43 206.03 288.5 208.59 288.5C211.15 288.5 213.22 286.43 213.22 283.87C213.22 281.31 211.15 279.24 208.59 279.24ZM251.42 279.24C248.86 279.24 246.79 281.31 246.79 283.87C246.79 286.43 248.86 288.5 251.42 288.5C253.98 288.5 256.05 286.43 256.05 283.87C256.05 281.31 253.98 279.24 251.42 279.24ZM250.35 169.41C247.79 169.41 245.72 171.48 245.72 174.04C245.72 176.6 247.79 178.67 250.35 178.67C252.91 178.67 254.98 176.6 254.98 174.04C254.98 171.48 252.91 169.41 250.35 169.41ZM269.88 135.92C267.32 135.92 265.25 137.99 265.25 140.55C265.25 143.11 267.32 145.18 269.88 145.18C272.44 145.18 274.51 143.11 274.51 140.55C274.51 137.99 272.44 135.92 269.88 135.92ZM295.08 151.3C292.52 151.3 290.45 153.37 290.45 155.93C290.45 158.49 292.52 160.56 295.08 160.56C297.64 160.56 299.71 158.49 299.71 155.93C299.71 153.37 297.64 151.3 295.08 151.3ZM319.3 175.36C316.74 175.36 314.67 177.43 314.67 179.99C314.67 182.55 316.74 184.62 319.3 184.62C321.86 184.62 323.93 182.55 323.93 179.99C323.93 177.43 321.86 175.36 319.3 175.36ZM332.72 212.2C330.16 212.2 328.09 214.27 328.09 216.83C328.09 219.39 330.16 221.46 332.72 221.46C335.28 221.46 337.35 219.39 337.35 216.83C337.35 214.27 335.28 212.2 332.72 212.2ZM324.81 247.09C322.25 247.09 320.18 249.16 320.18 251.72C320.18 254.28 322.25 256.35 324.81 256.35C327.37 256.35 329.44 254.28 329.44 251.72C329.44 249.16 327.37 247.09 324.81 247.09ZM272.76 261.1C270.2 261.1 268.13 263.17 268.13 265.73C268.13 268.29 270.2 270.36 272.76 270.36C275.32 270.36 277.39 268.29 277.39 265.73C277.39 263.17 275.32 261.1 272.76 261.1ZM299.54 279.6C296.98 279.6 294.91 281.67 294.91 284.23C294.91 286.79 296.98 288.86 299.54 288.86C302.1 288.86 304.17 286.79 304.17 284.23C304.17 281.67 302.1 279.6 299.54 279.6ZM272.76 301.63C270.2 301.63 268.13 303.7 268.13 306.26C268.13 308.82 270.2 310.89 272.76 310.89C275.32 310.89 277.39 308.82 277.39 306.26C277.39 303.7 275.32 301.63 272.76 301.63Z" fill="url(#paint0_linear_926_4)"/>
</g>
<defs>
<linearGradient id="paint0_linear_926_4" x1="-0.000420878" y1="240.11" x2="462.91" y2="240.11" gradientUnits="userSpaceOnUse">
<stop stop-color="#00E1FF"/>
<stop offset="1" stop-color="#008BFF"/>
</linearGradient>
<clipPath id="clip0_926_4">
<rect width="462.91" height="480.22" fill="white"/>
</clipPath>
</defs>
</svg>
